<svg width="1764" height="756" viewBox="0 0 1764 756" fill="none" xmlns="http://www.w3.org/2000/svg">
<g clip-path="url(#clip0_1503_2)">
<path d="M1215.59 476.795C1215.59 439.23 1215.59 237.256 1215.59 196.276C1215.59 178.713 1214.13 154.808 1210.72 137.245H1286.78C1284.83 154.808 1282.39 175.786 1282.39 196.276C1282.39 249.94 1282.88 440.693 1282.88 476.795C1282.88 490.455 1284.83 524.605 1287.27 544.607H1210.72C1214.13 525.581 1215.59 495.821 1215.59 476.795ZM1268.25 263.6C1333.1 281.651 1438.42 320.192 1486.2 343.609L1458.89 411.422C1403.31 382.638 1321.4 351.415 1268.25 333.852V263.6Z" fill="#DB3E3E" fill-opacity="0.08" style="fill:#DB3E3E;fill:color(display-p3 0.8588 0.2431 0.2431);fill-opacity:0.08;"/>
<path d="M893.946 233.841C903.21 254.331 927.101 318.24 933.927 340.682L875.905 360.684C869.567 337.267 848.114 278.236 836.412 252.867L893.946 233.841ZM1073.86 268.967C1068.5 285.066 1065.57 295.311 1062.65 305.068C1049.97 354.342 1029 405.079 995.849 447.523C950.505 506.554 890.045 547.046 832.999 569L781.803 516.799C834.949 502.163 903.21 465.086 943.191 414.349C976.346 373.368 1000.24 308.483 1005.6 247.013L1073.86 268.967ZM780.828 259.209C793.017 284.09 816.909 343.609 826.173 370.929L766.688 392.883C758.887 367.026 734.021 301.653 722.319 280.675L780.828 259.209Z" fill="#DB3E3E" fill-opacity="0.08" style="fill:#DB3E3E;fill:color(display-p3 0.8588 0.2431 0.2431);fill-opacity:0.08;"/>
<path d="M362.376 174.81C359.45 161.15 356.037 149.442 352.137 138.221L421.372 127C422.348 136.269 424.298 152.857 426.248 164.565C431.124 196.764 479.394 443.621 489.633 493.382C493.046 507.53 497.434 525.093 501.823 541.193L431.612 553.389C429.174 535.338 428.199 518.751 424.785 504.115C417.472 460.208 370.177 214.327 362.376 174.81ZM229.267 237.256C244.382 236.28 259.009 235.305 274.612 233.353C316.056 228.475 486.708 202.13 530.59 193.349C545.704 190.91 564.232 186.519 575.934 183.104L588.124 247.501C577.397 247.989 557.406 250.916 542.779 252.868C491.096 261.161 323.37 287.994 286.801 294.336C271.686 297.263 259.009 300.19 242.432 304.581L229.267 237.256ZM229.755 380.199C242.432 379.711 264.86 377.272 279.975 374.833C332.146 367.515 510.111 338.731 566.183 327.998C585.198 324.583 603.239 320.192 616.403 316.777L629.08 381.175C615.916 382.15 595.925 385.565 577.885 388.493C515.962 397.762 340.435 426.546 292.165 435.815C271.199 439.718 254.134 442.645 243.407 445.572L229.755 380.199Z" fill="#DB3E3E" fill-opacity="0.08" style="fill:#DB3E3E;fill:color(display-p3 0.8588 0.2431 0.2431);fill-opacity:0.08;"/>
</g>
<text fill="#DB3E3E" style="fill:#DB3E3E;fill:color(display-p3 0.8571 0.2429 0.2429);fill-opacity:1;" xml:space="preserve" style="white-space: pre" font-family="SF Pro" font-size="110" letter-spacing="0em"><tspan x="698.718" y="430.985">&#x1f392;</tspan></text>
<path d="M1034.44 433.48C1015.6 433.48 1003.72 419.44 1003.72 402.28C1003.72 385.24 1015.6 371.08 1034.44 371.08C1053.4 371.08 1065.28 385.24 1065.28 402.28C1065.28 419.44 1053.4 433.48 1034.44 433.48ZM1019.2 402.28C1019.2 411.52 1024.6 419.56 1034.44 419.56C1044.4 419.56 1049.8 411.52 1049.8 402.28C1049.8 393.04 1044.4 385 1034.44 385C1024.6 385 1019.2 393.04 1019.2 402.28Z" fill="#D83131" style="fill:#D83131;fill:color(display-p3 0.8476 0.1924 0.1924);fill-opacity:1;"/>
<path d="M997.13 431.8C995.45 432.28 992.93 432.88 989.21 432.88C977.09 432.88 967.73 427.24 967.73 412.96V386.2H957.65V372.28H967.73V354.28H983.21V372.28H998.81V386.2H983.21V409.72C983.21 415.84 986.57 418.96 991.73 418.96C994.13 418.96 996.05 418.36 997.13 417.76V431.8Z" fill="#D83131" style="fill:#D83131;fill:color(display-p3 0.8476 0.1924 0.1924);fill-opacity:1;"/>
<path d="M952.275 431.8C950.595 432.28 948.075 432.88 944.355 432.88C932.235 432.88 922.875 427.24 922.875 412.96V386.2H912.795V372.28H922.875V354.28H938.355V372.28H953.955V386.2H938.355V409.72C938.355 415.84 941.715 418.96 946.875 418.96C949.275 418.96 951.195 418.36 952.275 417.76V431.8Z" fill="#D83131" style="fill:#D83131;fill:color(display-p3 0.8476 0.1924 0.1924);fill-opacity:1;"/>
<path d="M887.657 372.28H903.137V432.28H887.657V372.28ZM885.977 351.88C885.977 346.72 890.177 342.52 895.457 342.52C900.617 342.52 904.817 346.72 904.817 351.88C904.817 357.16 900.617 361.36 895.457 361.36C890.177 361.36 885.977 357.16 885.977 351.88Z" fill="#D83131" style="fill:#D83131;fill:color(display-p3 0.8476 0.1924 0.1924);fill-opacity:1;"/>
<path d="M810.718 432.28V348.28H826.198V386.68L860.398 348.28H880.198L845.878 385.6L880.198 432.28H861.358L835.438 396.88L826.198 407.08V432.28H810.718Z" fill="#D83131" style="fill:#D83131;fill:color(display-p3 0.8476 0.1924 0.1924);fill-opacity:1;"/>
<defs>
<clipPath id="clip0_1503_2">
<rect width="1354" height="442" fill="white" style="fill:white;fill-opacity:1;" transform="translate(205 127)"/>
</clipPath>
</defs>
</svg>
