<svg width="1764" height="756" viewBox="0 0 1764 756" fill="none" xmlns="http://www.w3.org/2000/svg">
<g clip-path="url(#clip0_1503_2)">
<path d="M1215.59 476.795C1215.59 439.23 1215.59 237.256 1215.59 196.276C1215.59 178.713 1214.13 154.808 1210.72 137.245H1286.78C1284.83 154.808 1282.39 175.786 1282.39 196.276C1282.39 249.94 1282.88 440.693 1282.88 476.795C1282.88 490.455 1284.83 524.605 1287.27 544.607H1210.72C1214.13 525.581 1215.59 495.821 1215.59 476.795ZM1268.25 263.6C1333.1 281.651 1438.42 320.192 1486.2 343.609L1458.89 411.422C1403.31 382.638 1321.4 351.415 1268.25 333.852V263.6Z" fill="#DB3833" fill-opacity="0.05" style="fill:#DB3833;fill:color(display-p3 0.8588 0.2196 0.2000);fill-opacity:0.05;"/>
<path d="M893.946 233.841C903.21 254.331 927.101 318.24 933.927 340.682L875.905 360.684C869.567 337.267 848.114 278.236 836.412 252.867L893.946 233.841ZM1073.86 268.967C1068.5 285.066 1065.57 295.311 1062.65 305.068C1049.97 354.342 1029 405.079 995.849 447.523C950.505 506.554 890.045 547.046 832.999 569L781.803 516.799C834.949 502.163 903.21 465.086 943.191 414.349C976.346 373.368 1000.24 308.483 1005.6 247.013L1073.86 268.967ZM780.828 259.209C793.017 284.09 816.909 343.609 826.173 370.929L766.688 392.883C758.887 367.026 734.021 301.653 722.319 280.675L780.828 259.209Z" fill="#DB3833" fill-opacity="0.05" style="fill:#DB3833;fill:color(display-p3 0.8588 0.2196 0.2000);fill-opacity:0.05;"/>
<path d="M362.376 174.81C359.45 161.15 356.037 149.442 352.137 138.221L421.372 127C422.348 136.269 424.298 152.857 426.248 164.565C431.124 196.764 479.394 443.621 489.633 493.382C493.046 507.53 497.434 525.093 501.823 541.193L431.612 553.389C429.174 535.338 428.199 518.751 424.785 504.115C417.472 460.208 370.177 214.327 362.376 174.81ZM229.267 237.256C244.382 236.28 259.009 235.305 274.612 233.353C316.056 228.475 486.708 202.13 530.59 193.349C545.704 190.91 564.232 186.519 575.934 183.104L588.124 247.501C577.397 247.989 557.406 250.916 542.779 252.868C491.096 261.161 323.37 287.994 286.801 294.336C271.686 297.263 259.009 300.19 242.432 304.581L229.267 237.256ZM229.755 380.199C242.432 379.711 264.86 377.272 279.975 374.833C332.146 367.515 510.111 338.731 566.183 327.998C585.198 324.583 603.239 320.192 616.403 316.777L629.08 381.175C615.916 382.15 595.925 385.565 577.885 388.493C515.962 397.762 340.435 426.546 292.165 435.815C271.199 439.718 254.134 442.645 243.407 445.572L229.755 380.199Z" fill="#DB3833" fill-opacity="0.05" style="fill:#DB3833;fill:color(display-p3 0.8588 0.2196 0.2000);fill-opacity:0.05;"/>
</g>
<path d="M670.418 475.7H780.418V365.7H670.418V475.7ZM790.018 468V384H805.498V422.4L839.698 384H859.498L825.178 421.32L859.498 468H840.658L814.738 432.6L805.498 442.8V468H790.018ZM868.157 408H883.637V468H868.157V408ZM866.477 387.6C866.477 382.44 870.677 378.24 875.957 378.24C881.117 378.24 885.317 382.44 885.317 387.6C885.317 392.88 881.117 397.08 875.957 397.08C870.677 397.08 866.477 392.88 866.477 387.6ZM933.975 467.52C932.295 468 929.775 468.6 926.055 468.6C913.935 468.6 904.575 462.96 904.575 448.68V421.92H894.495V408H904.575V390H920.055V408H935.655V421.92H920.055V445.44C920.055 451.56 923.415 454.68 928.575 454.68C930.975 454.68 932.895 454.08 933.975 453.48V467.52ZM980.03 467.52C978.35 468 975.83 468.6 972.11 468.6C959.99 468.6 950.63 462.96 950.63 448.68V421.92H940.55V408H950.63V390H966.11V408H981.71V421.92H966.11V445.44C966.11 451.56 969.47 454.68 974.63 454.68C977.03 454.68 978.95 454.08 980.03 453.48V467.52ZM1018.54 469.2C999.701 469.2 987.821 455.16 987.821 438C987.821 420.96 999.701 406.8 1018.54 406.8C1037.5 406.8 1049.38 420.96 1049.38 438C1049.38 455.16 1037.5 469.2 1018.54 469.2ZM1003.3 438C1003.3 447.24 1008.7 455.28 1018.54 455.28C1028.5 455.28 1033.9 447.24 1033.9 438C1033.9 428.76 1028.5 420.72 1018.54 420.72C1008.7 420.72 1003.3 428.76 1003.3 438Z" fill="#DB3833" style="fill:#DB3833;fill:color(display-p3 0.8588 0.2196 0.2000);fill-opacity:1;"/>
<defs>
<clipPath id="clip0_1503_2">
<rect width="1354" height="442" fill="white" style="fill:white;fill-opacity:1;" transform="translate(205 127)"/>
</clipPath>
</defs>
</svg>
